# xmcd
#
# Track frame offsets:
#	150
#	15280
#	33365
#	46057
#	60350
#	72180
#	90847
#	104077
#	119807
#	133562
#	143610
#	157737
#	172680
#	187495
#	202320
#	215440
#	228697
#
# Disc length: 3285 seconds
#
# Revision: 5
# Processed by: cddbd v1.5.2PL0 Copyright (c) Steve Scherf et al.
# Submitted via: EasyCDDAExtractor 11.1.0.1
#
DISCID=e80cd311
DTITLE=Studiemusikere - Line Dance - Line Dance Party
DYEAR=1999
DGENRE=Country
TTITLE0=5, 6, 7, 8
TTITLE1=South Side Of Dixie
TTITLE2=Lovebug
TTITLE3=Rocket Ship
TTITLE4=Dizzy
TTITLE5=Rattlesnake Shake
TTITLE6=Something Stupid
TTITLE7=Don't Take Her She's All I've Got
TTITLE8=Draggin' My Chains
TTITLE9=Every Cowboy's Dream
TTITLE10=Love On The Loose, Heart On The Run
TTITLE11=Country Girls
TTITLE12=Every Time I get Around You
TTITLE13=Thanks To You
TTITLE14=Twistin' The Night Away
TTITLE15=One Dance With You
TTITLE16=Swamp Thing
EXTD=
EXTT0=
EXTT1=
EXTT2=
EXTT3=
EXTT4=
EXTT5=
EXTT6=
EXTT7=
EXTT8=
EXTT9=
EXTT10=
EXTT11=
EXTT12=
EXTT13=
EXTT14=
EXTT15=
EXTT16=
PLAYORDER=
